<?xml version="1.0" standalone="no"?>
<!DOCTYPE svg PUBLIC "-//W3C//DTD SVG 20010904//EN"
 "http://www.w3.org/TR/2001/REC-SVG-20010904/DTD/svg10.dtd">
<svg version="1.0" xmlns="http://www.w3.org/2000/svg"
 width="2126.000000pt" height="2126.000000pt" viewBox="0 0 2126.000000 2126.000000"
 preserveAspectRatio="xMidYMid meet">

<g transform="translate(0.000000,2126.000000) scale(0.100000,-0.100000)"
fill="#000000" stroke="none">
<path d="M10285 17019 c-448 -28 -942 -124 -1358 -263 -1036 -346 -1944 -994
-2608 -1861 -542 -709 -907 -1564 -1043 -2445 -50 -324 -60 -460 -60 -840 0
-380 10 -516 60 -840 153 -987 583 -1921 1239 -2686 180 -210 631 -667 2192
-2220 1644 -1636 1557 -1554 1718 -1604 200 -61 436 -19 603 107 80 61 3608
3588 3717 3717 678 797 1105 1738 1249 2756 41 288 51 437 51 770 0 333 -10
482 -51 770 -145 1019 -566 1948 -1252 2760 -124 148 -434 458 -582 582 -376
318 -754 565 -1174 769 -837 404 -1770 587 -2701 528z m2700 -1950 c-39 -505
-408 -938 -899 -1054 -60 -14 -194 -32 -331 -45 -282 -25 -383 -41 -550 -85
-651 -170 -1208 -626 -1505 -1230 -141 -288 -210 -537 -240 -865 -6 -72 -10
-588 -10 -1376 0 -1073 -2 -1274 -15 -1347 -95 -546 -536 -945 -1087 -984
l-88 -6 0 1754 c0 2076 2 2130 96 2553 125 563 395 1100 775 1541 199 231 475
473 738 646 251 166 644 347 936 432 441 128 703 154 1589 156 l599 1 -8 -91z
m-441 -5829 c110 -28 190 -74 271 -155 81 -81 127 -161 155 -271 36 -141 18
-295 -52 -427 -42 -80 -155 -193 -235 -235 -132 -70 -286 -88 -427 -52 -110
28 -190 74 -271 155 -150 150 -207 356 -155 559 28 110 74 190 155 271 150
150 356 207 559 155z"/>
</g>
</svg>
